<?xml version="1.0" encoding="utf-8"?>
<!-- Generator: Adobe Illustrator 24.2.0, SVG Export Plug-In . SVG Version: 6.00 Build 0)  -->
<svg version="1.1" id="Layer_1" xmlns="http://www.w3.org/2000/svg" xmlns:xlink="http://www.w3.org/1999/xlink" x="0px" y="0px"
	 viewBox="0 0 54 66" style="enable-background:new 0 0 54 66;" xml:space="preserve">
<style type="text/css">
	.st0{fill:#964488;}
	.st1{fill:#E53089;}
</style>
<g>
	<path class="st0" d="M23.8,13.6c-6.1,6.1-9.3,13.2-10.6,19.8c-1.8,9.4,0.3,17.1,4.4,20.6c3.1,2.7,8.4,4.5,15.3,0.9
		c5.1-2.7,7.7-6.2,9.3-8.1c0.4-0.5,1.2-0.3,0.5,0.8c-1.1,1.7-6.6,10.4-16,13.9c-6.9,2.8-14.6,2-19.3-3.6c-2-2.4-3.3-5.4-3.9-9.1
		C2.9,44,3.2,38.1,6,30.9c2.1-5.5,5.2-10.5,8.8-14.7c2.9-3.4,6-6.3,9.8-8.7c4.2-2.6,8.3-4.2,12.7-4.5c0.9-0.1,1.8,0,2.8,0
		c1.7,0.1,3.8,0.7,5.1,1.4c5,2.5,6.6,7.6,4.9,12.5c-1.6,4-3.8,6.3-6.4,8.1c-2.4,1.6-5.3,2.1-7.4,0.9c-1.3-0.7-2.4-2.1-2.6-4.3
		c-0.7-5.9,3.4-10.7,3.9-11.1c1.4-1.8,2.6-2.2,2.5-2.9c-0.3-0.9-3.3-0.7-3.6-0.7C29.3,7.7,23.8,13.6,23.8,13.6"/>
	<path class="st1" d="M37.4,43.3c-2.9,1-5.3-0.8-5.3-4c0-3.5,2.2-7.1,5.3-8.9c3-1.8,5.9-0.8,6.5,2.5c1.2,6.1-2.3,14.8-10.3,19.8
		c-3.9,2.4-7.9,2.4-10.2,1c-0.9-0.5-2.3-1.7-3-3.8c-0.8-2.3,0.1-2.4,0.4-1.6c0.5,2.2,4,7.4,12.4,1.3c2.2-1.8,3.5-3.6,4.3-5
		c0.1-0.1,0.5-0.8,0.5-0.9c0.1-0.3-0.1-0.5-0.3-0.5C37.6,43.1,37.4,43.3,37.4,43.3"/>
</g>
</svg>
